<svg width="1920" height="1080" viewBox="0 0 1920 1080" fill="none" xmlns="http://www.w3.org/2000/svg">
<g clip-path="url(#clip0_2_18)">
<rect width="1920" height="1080" fill="white"/>
<path d="M365.717 194.588C406.877 180.88 449.658 210.573 451.213 253.928L456.27 394.902C458.189 448.403 398.23 481.156 354.249 450.63L215.354 354.228C171.374 323.703 181.086 256.075 231.879 239.159L365.717 194.588Z" fill="#3A86FF"/>
<path d="M-10.5 772C99 527.037 393.533 896.091 661 917.5C960.303 941.457 1218.02 649.373 1428 864C1496.16 933.665 1517.35 989.295 1553 1080C1774.85 1644.45 137.427 1670.71 1.14441e-05 1080C-27.2711 962.779 -59.6143 881.874 -10.5 772Z" fill="#3A86FF"/>
<path d="M1251 -3.05176e-05C1186.56 -253.189 1920 -3.05176e-05 1920 -3.05176e-05C1920 -3.05176e-05 1938.14 99.6163 1920 159C1863.4 344.254 1739.94 258.094 1573.5 159C1478.23 102.277 1278.35 107.454 1251 -3.05176e-05Z" fill="#3A86FF"/>
</g>
<defs>
<clipPath id="clip0_2_18">
<rect width="1920" height="1080" fill="white"/>
</clipPath>
</defs>
</svg>
