<svg xmlns="http://www.w3.org/2000/svg" width="1920" height="1080" fill="none" viewBox="0 0 1920 1080"><g clip-path="url(#clip0_5_7)"><rect width="1920" height="1080" fill="#fff"/><path fill="#3A86FF" d="M6.86646e-05 0C112.41 -186.681 505.026 -211.376 558 0C584.193 104.512 607.143 174.535 519 236.5C429.017 299.759 316.378 215.032 208.5 236.5C120.014 254.109 86.7742 360.699 6.86646e-05 336C-126.203 300.078 -67.6878 112.41 6.86646e-05 0Z"/><path fill="#3A86FF" d="M801 860C1006.68 777.658 1145.86 911.96 1367 898.5C1586.45 885.143 1813.51 600.657 1920 793C1974.29 891.055 1942.46 970.193 1920 1080C1810.19 1616.79 156.718 1492.79 517 1080C609.252 974.303 670.756 912.142 801 860Z"/><circle cx="1557" cy="162" r="82.5" stroke="#3A86FF" stroke-width="35"/><path fill="#3A86FF" d="M367.352 783.082C367.339 782.556 366.861 782.141 366.284 782.155L356.878 782.385C356.301 782.399 355.843 782.837 355.856 783.362C355.869 783.888 356.347 784.303 356.924 784.289L365.285 784.085L365.471 791.702C365.484 792.228 365.962 792.643 366.539 792.629C367.117 792.615 367.574 792.177 367.561 791.651L367.352 783.082ZM117.909 1022.13L367.063 783.763L365.552 782.452L116.398 1020.82L117.909 1022.13Z"/><path fill="#3A86FF" d="M406.506 803.611C406.493 803.085 406.015 802.67 405.437 802.684L396.031 802.914C395.454 802.928 394.997 803.366 395.009 803.891C395.022 804.417 395.501 804.832 396.078 804.818L404.439 804.614L404.625 812.231C404.637 812.757 405.116 813.172 405.693 813.158C406.27 813.144 406.728 812.706 406.715 812.18L406.506 803.611ZM157.063 1042.66L406.216 804.292L404.705 802.981L155.552 1041.34L157.063 1042.66Z"/><path fill="#3A86FF" d="M328.199 765.975C328.186 765.449 327.707 765.034 327.13 765.048L317.724 765.277C317.147 765.292 316.689 765.729 316.702 766.255C316.715 766.781 317.193 767.196 317.771 767.182L326.132 766.978L326.318 774.595C326.33 775.12 326.809 775.535 327.386 775.521C327.963 775.507 328.421 775.069 328.408 774.544L328.199 765.975ZM78.7554 1005.02L327.909 766.655L326.398 765.345L77.2446 1003.71L78.7554 1005.02Z"/></g><defs><clipPath id="clip0_5_7"><rect width="1920" height="1080" fill="#fff"/></clipPath></defs></svg>