<svg width="1920" height="135" viewBox="0 0 1920 135" fill="none" xmlns="http://www.w3.org/2000/svg">
<rect width="1920" height="135" fill="#0F0202"/>
<rect x="30" y="64" width="40" height="8" fill="white"/>
<rect x="87" y="64" width="40" height="8" fill="white"/>
<rect x="144" y="64" width="40" height="8" fill="white"/>
<rect x="201" y="64" width="40" height="8" fill="white"/>
<rect x="258" y="64" width="40" height="8" fill="white"/>
<rect x="315" y="64" width="40" height="8" fill="white"/>
<rect x="372" y="64" width="40" height="8" fill="white"/>
<rect x="429" y="64" width="40" height="8" fill="white"/>
<rect x="486" y="64" width="40" height="8" fill="white"/>
<rect x="543" y="64" width="40" height="8" fill="white"/>
<rect x="600" y="64" width="40" height="8" fill="white"/>
<rect x="657" y="64" width="40" height="8" fill="white"/>
<rect x="714" y="64" width="40" height="8" fill="white"/>
<rect x="771" y="64" width="40" height="8" fill="white"/>
<rect x="828" y="64" width="40" height="8" fill="white"/>
<rect x="30" y="64" width="40" height="8" fill="white"/>
<rect x="885" y="64" width="40" height="8" fill="white"/>
<rect x="942" y="64" width="40" height="8" fill="white"/>
<rect x="999" y="64" width="40" height="8" fill="white"/>
<rect x="1056" y="64" width="40" height="8" fill="white"/>
<rect x="1113" y="64" width="40" height="8" fill="white"/>
<rect x="1170" y="64" width="40" height="8" fill="white"/>
<rect x="1227" y="64" width="40" height="8" fill="white"/>
<rect x="1284" y="64" width="40" height="8" fill="white"/>
<rect x="1341" y="64" width="40" height="8" fill="white"/>
<rect x="1398" y="64" width="40" height="8" fill="white"/>
<rect x="1455" y="64" width="40" height="8" fill="white"/>
<rect x="1512" y="64" width="40" height="8" fill="white"/>
<rect x="1569" y="64" width="40" height="8" fill="white"/>
<rect x="1626" y="64" width="40" height="8" fill="white"/>
<rect x="1683" y="64" width="40" height="8" fill="white"/>
<rect x="885" y="64" width="40" height="8" fill="white"/>
<rect x="213" y="119" width="169" height="33" transform="rotate(-180 213 119)" fill="white"/>
<path d="M243.5 109C243.5 114.523 239.023 119 233.5 119H214.5C214.5 119 214.38 109.606 214.5 103C214.627 96.0234 214.5 86 214.5 86H233.5C239.023 86 243.5 90.4772 243.5 96V109Z" fill="#5C0B0B"/>
<path d="M243.5 109C243.5 114.523 239.023 119 233.5 119H214.5C214.5 119 217.88 109.606 218 103C218.127 96.0234 214.5 86 214.5 86H233.5C239.023 86 243.5 90.4772 243.5 96V109Z" fill="#F32929"/>
<rect x="302.5" y="15" width="169" height="33" fill="white"/>
<path d="M272 25C272 19.4772 276.477 15 282 15H301C301 15 301.12 24.3938 301 31C300.873 37.9766 301 48 301 48H282C276.477 48 272 43.5228 272 38V25Z" fill="#4D551C"/>
<path d="M272 25C272 19.4772 276.477 15 282 15H301C301 15 297.62 24.3938 297.5 31C297.373 37.9766 301 48 301 48H282C276.477 48 272 43.5228 272 38V25Z" fill="#F7EF30"/>
<rect x="752" y="119" width="169" height="33" transform="rotate(-180 752 119)" fill="white"/>
<path d="M782.5 109C782.5 114.523 778.023 119 772.5 119H753.5C753.5 119 753.38 109.606 753.5 103C753.627 96.0234 753.5 86 753.5 86H772.5C778.023 86 782.5 90.4772 782.5 96V109Z" fill="#0A0624"/>
<path d="M782.5 109C782.5 114.523 778.023 119 772.5 119H753.5C753.5 119 756.88 109.606 757 103C757.127 96.0234 753.5 86 753.5 86H772.5C778.023 86 782.5 90.4772 782.5 96V109Z" fill="#3C00BA"/>
<rect x="980" y="119" width="169" height="33" transform="rotate(-180 980 119)" fill="white"/>
<path d="M1010.5 109C1010.5 114.523 1006.02 119 1000.5 119H981.5C981.5 119 981.38 109.606 981.5 103C981.627 96.0234 981.5 86 981.5 86H1000.5C1006.02 86 1010.5 90.4772 1010.5 96V109Z" fill="#0A0624"/>
<path d="M1010.5 109C1010.5 114.523 1006.02 119 1000.5 119H981.5C981.5 119 984.88 109.606 985 103C985.127 96.0234 981.5 86 981.5 86H1000.5C1006.02 86 1010.5 90.4772 1010.5 96V109Z" fill="#3C00BA"/>
<g clip-path="url(#clip0_1_133)">
<path fill-rule="evenodd" clip-rule="evenodd" d="M527.631 39.9021L529.738 39.659L531.554 43.6297L529.717 43.0115L528.752 40.2215L527.766 40.3328L528.713 43.366L532.983 45.5017L546.82 45.5398C547.477 48.5154 547.65 50.2752 549.718 49.7146L548.771 45.5574L588.193 45.6697L591.555 44.5642L592.289 43.0291C592.405 35.2586 592.405 28.6848 592.289 20.8958L591.555 19.3596L588.193 18.2561L548.791 18.386L549.718 14.2864C547.671 13.7434 547.477 15.4466 546.839 18.386L532.983 18.4251L528.713 20.5784L527.766 23.6116L528.752 23.7044L529.717 20.9339L531.554 20.3157L529.738 24.2669L527.631 24.0227C526.549 34.0789 526.549 29.8645 527.631 39.9021ZM585.796 38.6472L584.753 42.824L577.855 40.2019C577.874 34.6961 577.874 29.2278 577.855 23.7239L584.753 21.1018L585.796 25.2786C585.641 30.4466 585.641 33.4988 585.796 38.6472ZM555.728 41.4568L549.176 43.5164C547.554 39.8826 546.22 37.7488 546.453 33.6101V30.3147C546.22 26.176 547.554 24.0413 549.176 20.4094L555.728 22.469C554.588 24.7913 554.588 39.1345 555.728 41.4568ZM552.926 20.1653L557.1 21.7385L574.82 22.1497L573.739 20.1653L552.926 20.1653ZM552.926 43.7781L557.1 42.2068L574.82 41.7937L573.739 43.7595L552.926 43.7781Z" fill="#F30000"/>
</g>
<g clip-path="url(#clip1_1_133)">
<path fill-rule="evenodd" clip-rule="evenodd" d="M435.481 100.448L433.89 96.5547L431.475 95.8984L431.118 94.1943L429.545 92.791L431.624 93.9707L432.373 95.9365L433.777 96.3096L432.672 93.5957L428.553 91.123L415.108 90.1689C414.528 87.3975 413.76 85.8047 411.832 86.331L412.675 90.1689C399.229 91.2744 391.271 90.8809 378.708 90.2246C372.847 91.835 372.491 98.0898 372.491 104.194C372.51 110.278 372.866 116.179 378.708 117.788C391.271 117.113 399.229 116.722 412.675 117.844L411.832 121.665C413.76 122.206 414.528 120.597 415.108 117.825L428.553 116.89L432.672 114.399L433.777 111.684L432.373 112.059L431.624 114.044L429.545 115.224L431.118 113.818L431.475 112.096L433.89 111.459L435.481 107.546C435.519 107.189 435.519 100.823 435.481 100.448ZM376.985 104.006C377.135 98.54 376.629 96.1055 386.311 95.8799C386.311 101.292 386.311 106.722 386.311 112.134C376.629 111.909 377.135 109.456 376.985 104.006ZM396.814 104.006L397.433 98.4082L403.405 98.6699L404.21 104.006L403.405 109.324L397.433 109.586L396.814 104.006ZM406.832 94.2695L414.266 92.1924C415.839 95.8428 416.045 97.9775 415.839 102.097C415.839 103.37 415.839 104.643 415.839 105.897C416.045 110.036 415.839 112.17 414.266 115.804L406.832 113.744C408.63 109.961 408.63 98.0518 406.832 94.2695ZM409.565 116.047L405.521 114.492L388.332 114.08L388.707 115.335L391.365 116.085C397.04 115.299 403.237 115.522 409.565 116.047ZM409.565 91.9473L405.521 93.5195L388.332 93.9326L388.707 92.6592L391.365 91.9092C397.04 92.7148 403.237 92.4717 409.565 91.9473Z" fill="#F6EF30"/>
</g>
<g clip-path="url(#clip2_1_133)">
<path fill-rule="evenodd" clip-rule="evenodd" d="M435.481 100.448L433.89 96.5547L431.475 95.8984L431.118 94.1943L429.545 92.791L431.624 93.9707L432.373 95.9365L433.777 96.3096L432.672 93.5957L428.553 91.123L415.108 90.1689C414.528 87.3975 413.76 85.8047 411.832 86.331L412.675 90.1689C399.229 91.2744 391.271 90.8809 378.708 90.2246C372.847 91.835 372.491 98.0898 372.491 104.194C372.51 110.278 372.866 116.179 378.708 117.788C391.271 117.113 399.229 116.722 412.675 117.844L411.832 121.665C413.76 122.206 414.528 120.597 415.108 117.825L428.553 116.89L432.672 114.399L433.777 111.684L432.373 112.059L431.624 114.044L429.545 115.224L431.118 113.818L431.475 112.096L433.89 111.459L435.481 107.546C435.519 107.189 435.519 100.823 435.481 100.448ZM376.985 104.006C377.135 98.54 376.629 96.1055 386.311 95.8799C386.311 101.292 386.311 106.722 386.311 112.134C376.629 111.909 377.135 109.456 376.985 104.006ZM396.814 104.006L397.433 98.4082L403.405 98.6699L404.21 104.006L403.405 109.324L397.433 109.586L396.814 104.006ZM406.832 94.2695L414.266 92.1924C415.839 95.8428 416.045 97.9775 415.839 102.097C415.839 103.37 415.839 104.643 415.839 105.897C416.045 110.036 415.839 112.17 414.266 115.804L406.832 113.744C408.63 109.961 408.63 98.0518 406.832 94.2695ZM409.565 116.047L405.521 114.492L388.332 114.08L388.707 115.335L391.365 116.085C397.04 115.299 403.237 115.522 409.565 116.047ZM409.565 91.9473L405.521 93.5195L388.332 93.9326L388.707 92.6592L391.365 91.9092C397.04 92.7148 403.237 92.4717 409.565 91.9473Z" fill="#F6EF30"/>
</g>
<g clip-path="url(#clip3_1_133)">
<path fill-rule="evenodd" clip-rule="evenodd" d="M1503.52 38.5518L1505.11 42.4453L1507.53 43.1016L1507.88 44.8057L1509.45 46.209L1507.38 45.0293L1506.63 43.0635L1505.22 42.6904L1506.33 45.4043L1510.45 47.877L1523.89 48.8311C1524.47 51.6025 1525.24 53.1953 1527.17 52.669L1526.33 48.8311C1539.77 47.7256 1547.73 48.1191 1560.29 48.7754C1566.15 47.165 1566.51 40.9102 1566.51 34.8057C1566.49 28.7217 1566.13 22.8213 1560.29 21.2119C1547.73 21.8867 1539.77 22.2783 1526.33 21.1563L1527.17 17.335C1525.24 16.794 1524.47 18.4033 1523.89 21.1748L1510.45 22.1104L1506.33 24.6006L1505.22 27.3164L1506.63 26.9414L1507.38 24.9561L1509.45 23.7764L1507.88 25.1816L1507.53 26.9043L1505.11 27.541L1503.52 31.4541C1503.48 31.8106 1503.48 38.1768 1503.52 38.5518ZM1562.01 34.9941C1561.87 40.46 1562.37 42.8945 1552.69 43.1201C1552.69 37.708 1552.69 32.2783 1552.69 26.8662C1562.37 27.0908 1561.87 29.544 1562.01 34.9941ZM1542.19 34.9941L1541.57 40.5918L1535.6 40.3301L1534.79 34.9941L1535.6 29.6758L1541.57 29.4141L1542.19 34.9941ZM1532.17 44.7305L1524.73 46.8076C1523.16 43.1572 1522.96 41.0225 1523.16 36.9033C1523.16 35.6299 1523.16 34.3574 1523.16 33.1025C1522.96 28.9639 1523.16 26.8301 1524.73 23.1963L1532.17 25.2559C1530.37 29.0391 1530.37 40.9482 1532.17 44.7305ZM1529.43 22.9531L1533.48 24.5078L1550.67 24.9199L1550.29 23.665L1547.63 22.915C1541.96 23.7012 1535.76 23.4775 1529.43 22.9531ZM1529.43 47.0527L1533.48 45.4805L1550.67 45.0674L1550.29 46.3408L1547.63 47.0908C1541.96 46.2852 1535.76 46.5283 1529.43 47.0527Z" fill="#F6EF30"/>
</g>
<g clip-path="url(#clip4_1_133)">
<path fill-rule="evenodd" clip-rule="evenodd" d="M1149.98 100.417L1147.51 92.3281L1143.37 90.1748L1133.69 90.1182C1133.11 87.3467 1132.89 85.7549 1130.94 86.2979L1131.8 90.1182L1079.97 90.0059L1076 92.6455V115.435L1079.97 118.074L1131.78 117.963L1130.94 121.707C1132.87 122.231 1133.11 120.678 1133.68 117.943L1143.37 117.925L1147.51 115.771L1149.98 107.683C1150 107.458 1150 100.642 1149.98 100.417ZM1080.5 116.127L1104.11 116.127L1104.09 92.2715L1080.31 92.2715C1080.31 99.875 1080.5 108.544 1080.5 116.127ZM1124.63 113.862L1131 115.921C1132.57 112.288 1133.84 110.154 1133.64 106.016C1133.64 101.578 1133.64 106.503 1133.64 102.064C1133.84 97.9258 1132.57 95.792 1131 92.1406L1124.63 94.2188C1126.43 98.001 1126.43 110.061 1124.63 113.862ZM1127.36 116.184L1123.32 114.61L1107.7 114.236L1108.08 115.49L1109.16 116.221L1127.36 116.184ZM1127.36 91.8975L1123.32 93.4697L1107.7 93.919L1108.08 92.665L1109.16 91.8594L1127.36 91.8975Z" fill="#FF0000"/>
<path d="M1103.45 94.9863V93.957H1081.38V94.9863H1103.45Z" fill="#FF0000"/>
<path d="M1103.45 97.7207V96.6904H1081.38V97.7207H1103.45Z" fill="#FF0000"/>
<path d="M1103.45 100.529V99.5H1081.38V100.529H1103.45Z" fill="#FF0000"/>
<path d="M1103.45 103.264V102.215H1081.38V103.264H1103.45Z" fill="#FF0000"/>
<path d="M1103.45 106.072V105.023H1081.38V106.072H1103.45Z" fill="#FF0000"/>
<path d="M1103.45 108.806V107.758H1081.38V108.806H1103.45Z" fill="#FF0000"/>
<path d="M1103.45 111.614V110.565H1081.38V111.614H1103.45Z" fill="#FF0000"/>
<path d="M1103.45 114.329V113.3H1081.38V114.329H1103.45Z" fill="#FF0000"/>
</g>
<g clip-path="url(#clip5_1_133)">
<path fill-rule="evenodd" clip-rule="evenodd" d="M90.0156 36.583L92.4873 44.6719L96.626 46.8252L106.306 46.8818C106.887 49.6533 107.112 51.2451 109.059 50.7021L108.198 46.8818L160.028 46.9941L163.998 44.3545V21.5654L160.028 18.9258L108.217 19.0371L109.059 15.293C107.13 14.7685 106.887 16.3223 106.325 19.0566L96.626 19.0752L92.4873 21.2285L90.0156 29.3174C89.9971 29.542 89.9971 36.3584 90.0156 36.583ZM159.504 20.873H135.892L135.911 44.7285H159.691C159.691 37.125 159.504 28.456 159.504 20.873ZM115.369 23.1377L109.003 21.0791C107.43 24.7119 106.157 26.8457 106.363 30.9844C106.363 35.4219 106.363 30.4971 106.363 34.9355C106.157 39.0742 107.43 41.208 109.003 44.8594L115.369 42.7812C113.572 38.999 113.572 26.9394 115.369 23.1377ZM112.635 20.8164L116.68 22.3896L132.297 22.7637L131.922 21.5098L130.836 20.7793L112.635 20.8164ZM112.635 45.1025L116.68 43.5303L132.297 43.081L131.922 44.335L130.836 45.1406L112.635 45.1025Z" fill="#FF0000"/>
<path d="M136.547 42.0137V43.043H158.624V42.0137H136.547Z" fill="#FF0000"/>
<path d="M136.547 39.2793V40.3096H158.624V39.2793H136.547Z" fill="#FF0000"/>
<path d="M136.547 36.4707V37.5H158.624V36.4707H136.547Z" fill="#FF0000"/>
<path d="M136.547 33.7363V34.7852H158.624V33.7363H136.547Z" fill="#FF0000"/>
<path d="M136.547 30.9277V31.9766H158.624V30.9277H136.547Z" fill="#FF0000"/>
<path d="M136.547 28.1943V29.2422H158.624V28.1943H136.547Z" fill="#FF0000"/>
<path d="M136.547 25.3857V26.4346H158.624V25.3857H136.547Z" fill="#FF0000"/>
<path d="M136.547 22.6709V23.7002H158.624V22.6709H136.547Z" fill="#FF0000"/>
</g>
<g clip-path="url(#clip6_1_133)">
<path fill-rule="evenodd" clip-rule="evenodd" d="M802.703 35.5972L805.174 43.6851L809.312 45.8384L822.289 45.8765C822.887 48.6479 823.113 50.2388 825.041 49.7144L824.199 45.8765L862.809 46.0083L866.779 43.3667C867.49 36.3081 867.49 27.6186 866.779 20.5786L862.809 17.937L824.199 18.0503L825.041 14.2866C823.131 13.7622 822.887 15.3364 822.307 18.0503L809.312 18.0884L805.174 20.2417L802.703 28.3296C802.684 28.5552 802.684 35.3716 802.703 35.5972ZM860.301 23.2563L851.875 23.7436C851.875 30.6147 851.875 33.2544 851.875 40.1831L860.301 40.6704C860.301 33.0864 860.301 30.8403 860.301 23.2563ZM831.352 22.1333L825.004 20.0737C823.432 23.7241 822.139 25.8394 822.363 29.978C822.363 34.4165 822.363 29.5093 822.363 33.9487C822.139 38.0864 823.432 40.2212 825.004 43.855L831.352 41.7954C829.572 38.0122 829.555 25.9331 831.352 22.1333ZM828.637 19.8286L832.682 21.4028L849.852 21.814L849.477 20.5405L846.818 19.7925L828.637 19.8286ZM828.637 44.0972L832.682 42.5425L849.852 42.1313L849.477 43.3862L846.818 44.1343L828.637 44.0972Z" fill="#3C00BA"/>
</g>
<g clip-path="url(#clip7_1_133)">
<path fill-rule="evenodd" clip-rule="evenodd" d="M885.703 35.5972L888.174 43.6851L892.312 45.8384L905.289 45.8765C905.887 48.6479 906.113 50.2388 908.041 49.7144L907.199 45.8765L945.809 46.0083L949.779 43.3667C950.49 36.3081 950.49 27.6186 949.779 20.5786L945.809 17.937L907.199 18.0503L908.041 14.2866C906.131 13.7622 905.887 15.3364 905.307 18.0503L892.312 18.0884L888.174 20.2417L885.703 28.3296C885.684 28.5552 885.684 35.3716 885.703 35.5972ZM943.301 23.2563L934.875 23.7436C934.875 30.6147 934.875 33.2544 934.875 40.1831L943.301 40.6704C943.301 33.0864 943.301 30.8403 943.301 23.2563ZM914.352 22.1333L908.004 20.0737C906.432 23.7241 905.139 25.8394 905.363 29.978C905.363 34.4165 905.363 29.5093 905.363 33.9487C905.139 38.0864 906.432 40.2212 908.004 43.855L914.352 41.7954C912.572 38.0122 912.555 25.9331 914.352 22.1333ZM911.637 19.8286L915.682 21.4028L932.852 21.814L932.477 20.5405L929.818 19.7925L911.637 19.8286ZM911.637 44.0972L915.682 42.5425L932.852 42.1313L932.477 43.3862L929.818 44.1343L911.637 44.0972Z" fill="#3C00BA"/>
</g>
<rect x="1234.5" y="17" width="169" height="33" fill="white"/>
<path d="M1204 27C1204 21.4772 1208.48 17 1214 17H1233C1233 17 1233.12 26.3938 1233 33C1232.87 39.9766 1233 50 1233 50H1214C1208.48 50 1204 45.5228 1204 40V27Z" fill="#5C0B0B"/>
<path d="M1204 27C1204 21.4772 1208.48 17 1214 17H1233C1233 17 1229.62 26.3938 1229.5 33C1229.37 39.9766 1233 50 1233 50H1214C1208.48 50 1204 45.5228 1204 40V27Z" fill="#F32929"/>
<rect x="1696.5" y="17" width="169" height="33" fill="white"/>
<path d="M1666 27C1666 21.4772 1670.48 17 1676 17H1695C1695 17 1695.12 26.3938 1695 33C1694.87 39.9766 1695 50 1695 50H1676C1670.48 50 1666 45.5228 1666 40V27Z" fill="#4D551C"/>
<path d="M1666 27C1666 21.4772 1670.48 17 1676 17H1695C1695 17 1691.62 26.3938 1691.5 33C1691.37 39.9766 1695 50 1695 50H1676C1670.48 50 1666 45.5228 1666 40V27Z" fill="#F7EF30"/>
<rect x="1736" y="64" width="40" height="8" fill="white"/>
<rect x="1793" y="64" width="40" height="8" fill="white"/>
<rect x="1850" y="64" width="40" height="8" fill="white"/>
<rect x="1736" y="64" width="40" height="8" fill="white"/>
<defs>
<clipPath id="clip0_1_133">
<rect width="36.0095" height="67.0051" fill="white" transform="matrix(0 -1 1 0 526.003 50.0143)"/>
</clipPath>
<clipPath id="clip1_1_133">
<rect width="36" height="64" fill="white" transform="matrix(0 1 -1 0 436 86)"/>
</clipPath>
<clipPath id="clip2_1_133">
<rect width="36" height="64" fill="white" transform="matrix(0 1 -1 0 436 86)"/>
</clipPath>
<clipPath id="clip3_1_133">
<rect width="36" height="64" fill="white" transform="matrix(0 -1 1 0 1503 53)"/>
</clipPath>
<clipPath id="clip4_1_133">
<rect width="36" height="74" fill="white" transform="matrix(0 1 -1 0 1150 86)"/>
</clipPath>
<clipPath id="clip5_1_133">
<rect width="36" height="74" fill="white" transform="matrix(0 -1 1 0 90 51)"/>
</clipPath>
<clipPath id="clip6_1_133">
<rect width="36" height="66" fill="white" transform="matrix(0 -1 1 0 802 50)"/>
</clipPath>
<clipPath id="clip7_1_133">
<rect width="36" height="66" fill="white" transform="matrix(0 -1 1 0 885 50)"/>
</clipPath>
</defs>
</svg>
